<?xml version="1.0" encoding="UTF-8"?><svg id="b" xmlns="http://www.w3.org/2000/svg" viewBox="0 0 178.1 30"><defs><style>.d{fill:#255c29;}</style></defs><g id="c"><path class="d" d="M9,5.8H0L1.3,1.2h23l-1.3,4.6h-9l-6.4,23.7H2.6L9,5.8Z"/><path class="d" d="M25.7,26c2.1,0,3.6-.7,5.5-2.1l2.3,3.1c-2,1.7-4.6,3-8.3,3-5.9,0-9.7-3.6-9.7-9.3s5.1-12.9,12.6-12.9,8.5,3.6,8.5,8.3-.4,3.1-.9,4.6h-15.5c0,3.2,1.9,5.4,5.5,5.4ZM31.7,17.3c.1-.3.2-.8.2-1.5,0-2.2-1.3-4.1-4.2-4.1s-5.9,2.3-7,5.5h11.1Z"/><path class="d" d="M45.1,0h4.9l-7.9,29.5h-4.9L45.1,0Z"/><path class="d" d="M59.8,26c2.1,0,3.6-.7,5.5-2.1l2.3,3.1c-2,1.7-4.6,3-8.3,3-5.9,0-9.7-3.6-9.7-9.3s5.1-12.9,12.6-12.9,8.5,3.6,8.5,8.3-.4,3.1-.9,4.6h-15.5c0,3.2,1.9,5.4,5.5,5.4ZM65.9,17.3c.1-.3.2-.8.2-1.5,0-2.2-1.3-4.1-4.2-4.1s-5.9,2.3-7,5.5h11.1Z"/><path class="d" d="M79,1.2h9c4,0,6.8.8,8.9,2.9,1.5,1.5,2.2,3.4,2.2,5.8,0,7-6,11-13.7,11h-5.4l-2.3,8.6h-6.2l7.6-28.3ZM85.6,15.5c4.1,0,6.9-1.9,6.9-5.1s-.3-1.7-.9-2.3c-.8-.8-2-1.3-3.9-1.3h-4l-2.3,8.6h4.2Z"/><path class="d" d="M112.2,1h6l4.5,28.5h-6.4l-.9-6.3h-12l-4.3,6.3h-6.7L112.2,1ZM114.6,17.7l-1.3-9.3-6.2,9.3h7.5Z"/><path class="d" d="M124,24.7l4.7-4c2.2,2.4,4.7,3.7,7.9,3.7s4.3-1.2,4.3-3-1-2.2-4.8-3.7c-3.7-1.5-7-3.5-7-7.6s5.2-9.3,11.2-9.3,8.2,1.7,10.6,4.2l-4.3,4.3c-2.1-2-4-3-6.8-3s-4.1,1.5-4.1,2.9,1.1,2.1,5,3.7c3.9,1.6,6.8,3.5,6.8,7.6,0,5.9-5.3,9.4-11.2,9.4s-9.7-1.8-12.3-5.2Z"/><path class="d" d="M157,1.2h21.1l-1.5,5.5h-15l-1.5,5.8h13.1l-1.5,5.5h-13.1l-1.6,6h15.2l-1.5,5.5h-21.3l7.6-28.3Z"/></g></svg>