<?xml version="1.0" encoding="UTF-8"?><svg id="b" xmlns="http://www.w3.org/2000/svg" viewBox="0 0 678.4 51.2"><defs><style>.d{fill:#422578;}.e{fill:#1e5c2e;}</style></defs><g id="c"><g><g><path class="e" d="M0,43.1l7.9-8.1c4.3,4,8.9,6,13.6,6s5-1.3,5-3.3-1.2-2.6-7.4-5c-6.9-2.7-11.4-5.6-11.4-12.2s1.5-7.1,4-9.6c3.3-3.3,8.5-5.4,14.6-5.4s13.8,2.5,18.1,6.5l-7.6,8.4c-3.3-3-7.1-4.8-11.7-4.8s-4.8,1.4-4.8,3.1,1.3,2.5,7.4,4.8c6.7,2.5,11.5,5.7,11.5,12.3s-1.5,7.4-4.1,10c-3.3,3.3-8.6,5.3-14.7,5.3S4.8,48.2,0,43.1Z"/><path class="e" d="M44.9,35.8c0-2.2,.3-4.6,1-7.1l6-22.4h12.3l-6.2,23.3c-.4,1.4-.6,2.7-.6,4.2,0,4,2.4,6.4,6.9,6.4s4.3-.8,6-2.3c1.6-1.6,2.8-3.8,3.7-7.3l6.5-24.2h12.3l-7,26.1c-1.6,5.7-3.8,10.1-6.9,13.2s-9.4,5.7-16.2,5.7c-11.3,0-17.8-5.7-17.8-15.4Z"/><path class="e" d="M100.1,6.3h12.2l5.8,17.1,15.1-17.1h13.6l-11.8,44.1h-12.2l6.7-25.3-15.8,17.3h-.3l-6.5-17.2-6.7,25.3h-12L100.1,6.3Z"/><path class="e" d="M169.3,6h12l6.9,44.4h-12.8l-1.1-7.9h-17l-5.3,7.9h-13.3L169.3,6Zm4,27l-1.6-12.6-8.2,12.6h9.9Z"/><path class="e" d="M203.3,6.3h12.2l-8.9,33.4h21l-2.9,10.7h-33.3l11.9-44.1Z"/><path class="e" d="M277.2,25.2c0,6.9-2.8,13.5-7.7,18.4-4.7,4.6-11,7.6-18.5,7.6-12.6,0-21-8.5-21-19.8s2.8-13.5,7.7-18.3c4.7-4.7,11-7.6,18.5-7.6,12.6,0,21,8.6,21,19.7Zm-16.8,11.5c2.7-2.7,4.3-6.7,4.3-10.5,0-5.6-3.4-9.8-9.7-9.8s-6.2,1.3-8.4,3.5c-2.7,2.8-4.3,6.7-4.3,10.5,0,5.6,3.4,9.8,9.7,9.8s6.2-1.4,8.4-3.6Z"/></g><g><g><path class="d" d="M286.9,44.4l4.4-6.7c4,2.9,8,4.3,11.4,4.3s4.3-1.1,4.3-2.7h0c0-2.4-3.5-3-7.5-4.3-5.1-1.4-10.8-3.8-10.8-10.8h0c0-7.5,5.9-11.6,13.2-11.6s9.5,1.5,13.5,4.2l-3.9,7.1c-3.6-2.1-7.1-3.4-9.8-3.4s-3.8,1.1-3.8,2.5h0c0,2,3.4,3.2,7.3,4.4,5.1,1.6,10.9,4.1,10.9,10.7h0c0,8.2-6,11.8-13.8,11.8s-10.6-1.7-15.5-5.5Z"/><path class="d" d="M322.3,13.1h10.2V49.2h-10.2V13.1Z"/><path class="d" d="M340.5,13.1h10.2v5.1c2.4-3,5.5-5.8,10.6-5.8,7.8,0,12.3,5.1,12.3,13.4v23.4h-10.2V29c0-4.9-2.2-7.3-6.2-7.3s-6.4,2.5-6.4,7.3v20.1h-10.2V13.1Z"/><path class="d" d="M409.6,44.5v4.7h-10.2V0h10.2V18.3c2.5-3.4,5.9-5.9,11.3-5.9,8.4,0,16.4,6.6,16.4,18.7h0c0,12.2-7.9,18.8-16.4,18.8s-8.8-2.5-11.3-5.4Zm17.5-13.3h0c0-6.1-4-10.1-8.8-10.1s-8.8,4-8.8,10h0c0,6.1,4,10.1,8.8,10.1s8.8-3.9,8.8-10Z"/><path class="d" d="M441,38.8h0c0-8,6-11.7,14.6-11.7s6.2,.6,8.8,1.5v-.6c0-4.3-2.6-6.6-7.7-6.6s-6.7,.7-10,2l-2.6-7.8c4-1.7,7.9-2.9,14-2.9s9.6,1.4,12.2,4c2.7,2.7,3.9,6.7,3.9,11.5v21h-9.9v-3.9c-2.5,2.8-5.9,4.6-10.9,4.6s-12.4-3.8-12.4-11.1Zm23.5-2.4v-1.8c-1.8-.8-4-1.3-6.5-1.3-4.4,0-7.1,1.8-7.1,5h0c0,2.9,2.3,4.5,5.6,4.5,4.9,0,8-2.6,8-6.3Z"/><path class="d" d="M481.3,13.1h10.2v7.3c2.1-4.9,5.4-8.2,11.5-8v10.7h-.5c-6.8,0-11,4-11,12.7v13.3h-10.2V13.1Z"/><path class="d" d="M507.8,13.1h10.2v7.3c2.1-4.9,5.4-8.2,11.5-8v10.7h-.5c-6.8,0-11,4-11,12.7v13.3h-10.2V13.1Z"/><path class="d" d="M531.5,31.3h0c0-10.4,7.3-18.9,17.9-18.9s17.6,9.4,17.6,19.6,0,1.7-.1,2.7h-25.1c1,4.6,4.2,7.1,8.8,7.1s5.9-1.1,8.8-3.7l5.9,5.2c-3.4,4.2-8.2,6.7-14.8,6.7-10.8,0-18.9-7.6-18.9-18.7Zm25.5-3c-.6-4.6-3.3-7.7-7.6-7.7s-7,3-7.8,7.7h15.4Z"/><path class="d" d="M572.9,13.1h10.2v7.3c2.1-4.9,5.4-8.2,11.5-8v10.7h-.5c-6.8,0-11,4-11,12.7v13.3h-10.2V13.1Z"/><path class="d" d="M595.6,38.8h0c0-8,6-11.7,14.6-11.7s6.2,.6,8.8,1.5v-.6c0-4.3-2.6-6.6-7.7-6.6s-6.7,.7-10,2l-2.6-7.8c4-1.7,7.9-2.9,14-2.9s9.6,1.4,12.2,4c2.7,2.7,3.9,6.7,3.9,11.5v21h-9.9v-3.9c-2.5,2.8-5.9,4.6-10.9,4.6s-12.4-3.8-12.4-11.1Zm23.5-2.4v-1.8c-1.8-.8-4-1.3-6.5-1.3-4.4,0-7.1,1.8-7.1,5h0c0,2.9,2.3,4.5,5.6,4.5,4.9,0,8-2.6,8-6.3Z"/><path class="d" d="M633.1,44.4l4.4-6.7c4,2.9,8,4.3,11.4,4.3s4.3-1.1,4.3-2.7h0c0-2.4-3.5-3-7.5-4.3-5.1-1.4-10.8-3.8-10.8-10.8h0c0-7.5,5.9-11.6,13.2-11.6s9.5,1.5,13.5,4.2l-3.9,7.1c-3.6-2.1-7.1-3.4-9.8-3.4s-3.8,1.1-3.8,2.5h0c0,2,3.4,3.2,7.3,4.4,5.1,1.6,10.9,4.1,10.9,10.7h0c0,8.2-6,11.8-13.8,11.8s-10.6-1.7-15.5-5.5Z"/></g><circle class="d" cx="327.3" cy="5.3" r="5.3"/><circle class="d" cx="673.1" cy="43.8" r="5.3"/></g></g></g></svg>