<?xml version="1.0" encoding="UTF-8"?><svg id="b" xmlns="http://www.w3.org/2000/svg" viewBox="0 0 377.6 122.6"><defs><style>.d{fill:#6b247a;}.e{fill:#1e5c2e;}</style></defs><g id="c"><g><g><path class="e" d="M2.5,50.1l10.5-10.8c5.8,5.3,11.8,8,18.1,8s6.6-1.7,6.6-4.4-1.6-3.5-9.8-6.6c-9.2-3.6-15.2-7.5-15.2-16.2s2-9.5,5.4-12.9C22.6,2.8,29.5,0,37.6,0s18.4,3.4,24.1,8.7l-10.1,11.2c-4.5-3.9-9.5-6.4-15.5-6.4s-6.4,1.8-6.4,4.1,1.8,3.4,9.8,6.5c9,3.4,15.3,7.6,15.3,16.4s-2,9.8-5.5,13.3c-4.5,4.5-11.4,7.1-19.6,7.1s-20.9-3.9-27.3-10.8Z"/><path class="e" d="M62.4,40.4c0-2.9,.4-6.1,1.3-9.4L71.7,1.1h16.5l-8.3,31.1c-.6,1.9-.8,3.6-.8,5.5,0,5.4,3.2,8.6,9.2,8.6s5.8-1,8-3.1c2.1-2.1,3.7-5,5-9.7L109.8,1.1h16.5l-9.3,34.8c-2.1,7.6-5.1,13.5-9.2,17.6s-12.6,7.6-21.7,7.6c-15.1,0-23.7-7.6-23.7-20.6Z"/><path class="e" d="M136.1,1.1h16.3l7.7,22.8L180.2,1.1h18.1l-15.8,58.8h-16.2l9-33.8-21.1,23h-.3l-8.7-22.9-9,33.7h-16L136.1,1.1Z"/><path class="e" d="M228.4,.7h16l9.2,59.2h-17.1l-1.4-10.6h-22.7l-7.1,10.6h-17.7L228.4,.7Zm5.3,36l-2.2-16.8-11,16.8h13.2Z"/><path class="e" d="M273.7,1.1h16.3l-11.9,44.5h28.1l-3.9,14.3h-44.4L273.7,1.1Z"/><path class="e" d="M372.3,26.3c0,9.2-3.8,18.1-10.2,24.5-6.3,6.1-14.7,10.2-24.7,10.2-16.8,0-28.1-11.3-28.1-26.4s3.8-18,10.2-24.4c6.3-6.3,14.7-10.2,24.7-10.2,16.8,0,28.1,11.4,28.1,26.3Zm-22.3,15.3c3.6-3.6,5.8-8.9,5.8-13.9,0-7.5-4.5-13-12.9-13s-8.2,1.8-11.2,4.7c-3.6,3.7-5.8,9-5.8,14,0,7.5,4.5,13,12.9,13s8.2-1.8,11.2-4.8Z"/></g><g><g><path class="d" d="M0,117.2l4.2-6.5c3.8,2.8,7.7,4.2,11,4.2s4.2-1,4.2-2.6h0c0-2.3-3.4-2.9-7.2-4.2-4.9-1.4-10.4-3.7-10.4-10.5h0c0-7.2,5.7-11.2,12.7-11.2s9.2,1.5,13,4l-3.8,6.8c-3.4-2-6.9-3.2-9.4-3.2s-3.6,1-3.6,2.4h0c0,2,3.3,3.1,7.1,4.3,4.9,1.6,10.5,4,10.5,10.3h0c0,7.9-5.8,11.4-13.3,11.4s-10.3-1.6-15-5.3Z"/><path class="d" d="M34.2,86.9h9.9v34.8h-9.9v-34.8Z"/><path class="d" d="M51.7,86.9h9.9v4.9c2.3-2.9,5.3-5.6,10.2-5.6,7.5,0,11.8,4.9,11.8,12.9v22.6h-9.9v-19.4c0-4.7-2.1-7.1-6-7.1s-6.2,2.4-6.2,7.1v19.4h-9.9v-34.8Z"/><path class="d" d="M118.4,117.2v4.6h-9.9v-47.5h9.9v17.6c2.4-3.3,5.7-5.7,10.9-5.7,8.1,0,15.9,6.4,15.9,18h0c0,11.8-7.6,18.1-15.9,18.1s-8.5-2.4-10.9-5.2Zm16.8-12.8h0c0-5.9-3.9-9.8-8.5-9.8s-8.5,3.8-8.5,9.6h0c0,5.9,3.8,9.8,8.5,9.8s8.5-3.8,8.5-9.6Z"/><path class="d" d="M148.7,111.8h0c0-7.7,5.8-11.2,14-11.2s6,.6,8.5,1.4v-.6c0-4.2-2.5-6.4-7.5-6.4s-6.4,.6-9.6,1.9l-2.5-7.5c3.8-1.6,7.6-2.8,13.5-2.8s9.2,1.4,11.8,3.9c2.6,2.6,3.8,6.4,3.8,11.1v20.2h-9.6v-3.8c-2.4,2.7-5.7,4.4-10.5,4.4s-12-3.7-12-10.7Zm22.7-2.3v-1.8c-1.8-.8-3.9-1.3-6.3-1.3-4.2,0-6.8,1.7-6.8,4.8h0c0,2.8,2.2,4.4,5.4,4.4,4.7,0,7.7-2.5,7.7-6.1Z"/><path class="d" d="M187.6,86.9h9.9v7c2-4.7,5.2-7.9,11.1-7.7v10.3h-.5c-6.6,0-10.6,3.9-10.6,12.3v12.9h-9.9v-34.8Z"/><path class="d" d="M213.1,86.9h9.9v7c2-4.7,5.2-7.9,11.1-7.7v10.3h-.5c-6.6,0-10.6,3.9-10.6,12.3v12.9h-9.9v-34.8Z"/><path class="d" d="M236,104.6h0c0-10.1,7.1-18.3,17.2-18.3s17,9,17,18.9,0,1.6-.1,2.6h-24.2c1,4.5,4.1,6.8,8.5,6.8s5.7-1,8.5-3.6l5.7,5c-3.3,4.1-7.9,6.5-14.2,6.5-10.5,0-18.2-7.3-18.2-18Zm24.6-2.9c-.6-4.4-3.2-7.4-7.3-7.4s-6.8,2.9-7.5,7.4h14.9Z"/><path class="d" d="M275.9,86.9h9.9v7c2-4.7,5.2-7.9,11.1-7.7v10.3h-.5c-6.6,0-10.6,3.9-10.6,12.3v12.9h-9.9v-34.8Z"/><path class="d" d="M297.8,111.8h0c0-7.7,5.8-11.2,14-11.2s6,.6,8.5,1.4v-.6c0-4.2-2.5-6.4-7.5-6.4s-6.4,.6-9.6,1.9l-2.5-7.5c3.8-1.6,7.6-2.8,13.5-2.8s9.2,1.4,11.8,3.9c2.6,2.6,3.8,6.4,3.8,11.1v20.2h-9.6v-3.8c-2.4,2.7-5.7,4.4-10.5,4.4s-12-3.7-12-10.7Zm22.7-2.3v-1.8c-1.8-.8-3.9-1.3-6.3-1.3-4.2,0-6.8,1.7-6.8,4.8h0c0,2.8,2.2,4.4,5.4,4.4,4.7,0,7.7-2.5,7.7-6.1Z"/><path class="d" d="M334,117.2l4.2-6.5c3.8,2.8,7.7,4.2,11,4.2s4.2-1,4.2-2.6h0c0-2.3-3.4-2.9-7.2-4.2-4.9-1.4-10.4-3.7-10.4-10.5h0c0-7.2,5.7-11.2,12.7-11.2s9.2,1.5,13,4l-3.8,6.8c-3.4-2-6.9-3.2-9.4-3.2s-3.6,1-3.6,2.4h0c0,2,3.3,3.1,7.1,4.3,4.9,1.6,10.5,4,10.5,10.3h0c0,7.9-5.8,11.4-13.3,11.4s-10.3-1.6-15-5.3Z"/></g><circle class="d" cx="39" cy="79.4" r="5.1"/><circle class="d" cx="372.6" cy="116.6" r="5.1"/></g></g></g></svg>